<?xml version="1.0" standalone="no"?>
<!DOCTYPE svg PUBLIC "-//W3C//DTD SVG 20010904//EN"
 "http://www.w3.org/TR/2001/REC-SVG-20010904/DTD/svg10.dtd">
<svg version="1.0" xmlns="http://www.w3.org/2000/svg"
 width="583.000000pt" height="583.000000pt" viewBox="0 0 583.000000 583.000000"
 preserveAspectRatio="xMidYMid meet">
<metadata>
Created by potrace 1.14, written by Peter Selinger 2001-2017
</metadata>
<g transform="translate(0.000000,583.000000) scale(0.100000,-0.100000)"
fill="#000000" stroke="none">
<path d="M9 5379 c-5 -3 -8 -265 -7 -640 l3 -634 680 -2 c374 -1 685 -2 690
-2 7 -1 10 -592 10 -1812 0 -996 3 -1816 7 -1822 9 -15 1346 -19 1366 -4 9 7
12 135 12 581 l0 572 153 148 c83 81 227 223 319 314 92 91 170 164 172 161 2
-2 15 -29 29 -59 14 -30 51 -109 82 -175 88 -184 134 -283 175 -370 21 -44 61
-129 90 -190 57 -121 115 -242 165 -350 18 -38 63 -133 100 -210 37 -77 96
-203 132 -280 36 -77 67 -142 68 -143 6 -7 1554 -4 1565 3 6 4 -4 33 -29 78
-21 40 -80 153 -131 252 -51 99 -116 225 -145 280 -29 55 -90 172 -135 260
-45 88 -113 219 -150 290 -93 178 -160 308 -417 805 -42 80 -97 186 -123 235
-44 82 -85 162 -287 554 l-70 135 161 220 c89 122 168 231 176 243 23 33 193
266 207 283 7 8 75 103 153 210 77 107 146 202 153 210 7 9 28 38 47 65 19 28
72 102 119 165 46 63 103 140 125 171 162 223 217 299 264 361 28 39 52 77 52
85 0 8 -13 13 -37 14 -236 4 -5737 3 -5744 -2z m3239 -1278 c8 -1 -5 -26 -31
-63 -142 -204 -308 -444 -356 -513 -102 -150 -91 -177 -91 223 l0 351 53 3
c45 3 390 2 425 -1z"/>
</g>
</svg>
