<?xml version="1.0" standalone="no"?>
<!DOCTYPE svg PUBLIC "-//W3C//DTD SVG 20010904//EN"
 "http://www.w3.org/TR/2001/REC-SVG-20010904/DTD/svg10.dtd">
<svg version="1.0" xmlns="http://www.w3.org/2000/svg"
 width="1200.000000pt" height="1200.000000pt" viewBox="0 0 1200.000000 1200.000000"
 preserveAspectRatio="xMidYMid meet">
<metadata>
Created by potrace 1.14, written by Peter Selinger 2001-2017
</metadata>
<g transform="translate(0.000000,1200.000000) scale(0.100000,-0.100000)"
fill="#000000" stroke="none">
<path d="M5659 11996 c-2 -2 -51 -6 -109 -10 -58 -4 -118 -9 -135 -11 -16 -3
-55 -7 -85 -10 -30 -2 -66 -6 -80 -9 -14 -2 -65 -10 -115 -16 -90 -13 -115
-17 -125 -20 -3 -1 -8 -2 -12 -1 -4 0 -38 -6 -75 -13 -38 -8 -81 -17 -98 -19
-27 -5 -148 -31 -200 -43 -11 -3 -29 -7 -40 -9 -54 -12 -322 -88 -337 -96 -10
-5 -18 -8 -18 -5 0 2 -64 -18 -142 -45 -79 -27 -151 -51 -160 -54 -10 -2 -32
-10 -50 -19 -18 -8 -64 -27 -103 -42 -209 -80 -498 -218 -709 -338 -54 -31
-102 -56 -107 -56 -5 0 -9 -4 -9 -9 0 -5 -8 -11 -17 -14 -10 -4 -35 -16 -55
-29 -94 -58 -164 -103 -173 -110 -5 -5 -39 -28 -75 -51 -100 -67 -286 -201
-300 -216 -3 -3 -25 -22 -50 -41 -25 -19 -46 -38 -48 -42 -2 -4 -8 -8 -13 -8
-5 0 -17 -8 -27 -17 -10 -10 -42 -38 -72 -63 -30 -25 -67 -56 -82 -70 -15 -14
-58 -53 -96 -87 -197 -178 -454 -453 -629 -673 -59 -74 -111 -141 -125 -161
-10 -13 -36 -48 -58 -78 -22 -30 -40 -57 -40 -61 0 -3 -8 -15 -18 -26 -49 -52
-322 -495 -322 -521 0 -7 -3 -13 -7 -13 -5 0 -13 -10 -19 -23 -29 -60 -177
-355 -189 -379 -8 -14 -15 -32 -15 -39 0 -7 -8 -21 -17 -32 -10 -11 -12 -17
-4 -12 10 6 9 2 -2 -16 -13 -21 -28 -53 -80 -179 -5 -14 -11 -29 -13 -35 -1
-5 -8 -23 -15 -40 -6 -16 -14 -39 -16 -49 -2 -11 -7 -24 -12 -30 -9 -11 -76
-215 -124 -376 -35 -119 -92 -345 -116 -470 -12 -58 -23 -116 -26 -130 -3 -14
-7 -38 -10 -55 -2 -16 -6 -39 -8 -50 -3 -11 -8 -45 -12 -75 -4 -30 -9 -64 -11
-75 -7 -33 -14 -87 -19 -155 -4 -36 -8 -76 -10 -90 -28 -162 -27 -953 0 -1165
3 -16 7 -57 11 -90 5 -55 9 -84 18 -155 6 -43 18 -124 22 -145 3 -11 7 -36 10
-55 6 -39 63 -329 68 -345 5 -14 4 -13 37 -137 16 -62 41 -150 55 -195 13 -46
24 -84 24 -85 -1 -5 87 -260 101 -293 7 -16 13 -32 13 -35 2 -6 45 -117 57
-145 95 -224 243 -539 259 -555 3 -3 12 -18 20 -35 16 -33 94 -172 110 -195 6
-8 13 -22 17 -30 4 -8 9 -17 12 -20 10 -9 31 -44 44 -73 6 -15 15 -27 19 -27
4 0 8 -7 8 -15 0 -8 5 -15 10 -15 6 0 10 -5 10 -10 0 -12 41 -73 53 -78 4 -2
7 -8 7 -13 0 -12 141 -212 152 -217 5 -2 8 -10 8 -17 0 -7 4 -15 8 -17 4 -1
30 -32 57 -68 47 -62 159 -203 180 -226 6 -6 35 -39 65 -74 182 -210 416 -440
644 -634 27 -22 54 -46 61 -53 7 -7 15 -9 19 -6 3 4 6 2 6 -4 0 -8 31 -35 135
-115 33 -26 126 -95 145 -108 12 -8 55 -39 95 -68 40 -28 78 -52 84 -52 6 0
11 -4 11 -10 0 -5 6 -10 14 -10 8 0 16 -4 18 -8 4 -12 213 -142 227 -142 6 0
11 -4 11 -9 0 -5 9 -13 20 -16 11 -4 48 -23 83 -44 34 -20 85 -48 112 -61 28
-14 52 -27 55 -30 9 -10 244 -122 370 -177 69 -29 134 -58 145 -63 170 -79
674 -237 935 -293 63 -14 138 -30 165 -36 28 -6 66 -14 85 -16 19 -3 46 -7 60
-10 14 -3 42 -8 64 -11 21 -3 48 -8 60 -10 19 -4 41 -7 136 -19 14 -1 52 -6
85 -9 33 -4 74 -9 90 -11 211 -27 952 -28 1170 0 53 7 149 18 175 20 43 5 150
21 200 30 14 3 41 7 60 10 19 2 46 7 60 10 14 3 41 8 60 11 19 4 85 17 145 31
61 13 119 26 130 28 50 11 321 88 337 96 10 5 18 8 18 5 0 -2 64 18 143 45 78
27 150 51 159 54 10 2 32 10 50 19 18 8 65 27 103 42 95 36 178 71 259 110 28
13 56 24 63 24 7 0 13 5 13 10 0 6 9 10 20 10 11 0 20 5 20 10 0 6 3 9 8 8 18
-6 546 281 572 311 3 4 22 15 43 26 20 11 37 23 37 27 0 5 5 8 10 8 6 0 16 5
23 10 7 6 41 30 77 53 96 64 246 172 310 224 8 6 47 37 85 68 97 78 151 123
184 154 16 14 61 55 101 90 100 90 258 248 370 371 132 144 142 155 167 188
12 16 34 41 48 56 14 15 25 29 25 32 0 4 8 13 58 68 12 14 22 30 22 35 0 5 3
11 8 13 6 3 62 75 117 152 11 16 29 40 40 55 12 14 52 73 90 131 37 58 81 124
97 148 15 24 28 47 28 51 0 4 9 18 20 31 11 13 20 29 20 36 0 7 3 14 8 16 8 3
43 62 70 118 9 19 20 37 23 40 5 5 90 167 130 250 46 93 113 242 154 340 45
107 48 115 51 125 1 6 8 24 15 40 6 17 14 39 16 49 2 11 7 24 12 30 8 10 79
222 86 256 2 8 4 16 5 18 2 1 3 5 5 10 1 4 4 14 7 22 3 8 11 33 16 55 6 22 15
51 19 65 4 14 8 27 8 30 1 3 7 25 14 50 13 45 17 62 27 109 3 14 7 28 9 31 2
4 7 22 10 41 9 46 10 51 18 74 3 11 9 36 11 55 3 19 12 67 20 105 8 39 17 86
20 105 3 19 8 46 10 60 5 27 11 67 21 145 4 28 9 61 11 75 2 14 6 52 10 85 3
33 7 71 10 85 26 170 26 922 -1 1160 -2 19 -6 60 -10 90 -8 79 -14 131 -20
160 -2 14 -7 48 -11 75 -3 28 -8 59 -10 70 -3 11 -7 36 -10 55 -4 30 -37 194
-51 255 -2 11 -6 29 -8 40 -3 11 -7 31 -11 45 -3 14 -7 34 -9 45 -20 103 -162
566 -206 670 -7 17 -13 32 -13 35 -1 6 -44 117 -57 145 -4 11 -22 52 -39 90
-17 39 -30 70 -29 70 3 0 -57 129 -109 235 -20 41 -40 77 -44 78 -5 2 -8 11
-8 21 0 9 -4 21 -9 27 -4 5 -23 36 -41 69 -18 33 -46 85 -62 115 -17 30 -39
67 -49 82 -11 14 -19 31 -19 37 0 6 -3 11 -8 11 -7 0 -21 22 -44 73 -7 15 -16
27 -20 27 -4 0 -8 7 -8 15 0 8 -4 15 -10 15 -5 0 -10 4 -10 10 0 11 -62 103
-72 108 -5 2 -8 8 -8 14 0 9 -145 215 -160 228 -3 3 -27 34 -52 70 -26 36 -55
74 -65 85 -10 11 -46 54 -80 95 -123 150 -230 267 -385 419 -180 178 -254 244
-458 413 -46 37 -221 171 -260 198 -12 8 -47 33 -78 56 -32 22 -72 49 -89 59
-18 11 -33 23 -33 28 0 4 -4 5 -10 2 -5 -3 -10 -1 -10 4 0 6 -6 11 -14 11 -8
0 -16 3 -18 8 -5 11 -184 122 -197 122 -6 0 -11 4 -11 9 0 5 -12 14 -27 20
-16 6 -46 22 -68 35 -22 14 -61 35 -87 48 -27 13 -48 26 -48 30 0 5 -7 8 -15
8 -9 0 -21 5 -28 10 -13 12 -274 140 -284 140 -3 0 -38 15 -77 34 -72 34 -298
126 -311 126 -4 0 -21 6 -38 14 -35 16 -252 90 -252 86 0 -1 -13 4 -30 10 -16
7 -37 13 -45 15 -8 2 -44 12 -80 23 -58 18 -243 67 -295 78 -11 2 -30 6 -42 9
-22 5 -40 9 -93 20 -14 3 -36 8 -50 11 -14 3 -36 7 -50 10 -14 2 -46 9 -73 14
-26 5 -51 9 -55 8 -4 -1 -18 2 -32 5 -29 7 -78 16 -135 22 -22 3 -56 7 -75 10
-60 9 -103 13 -185 20 -44 4 -96 9 -115 12 -40 6 -795 14 -801 9z"/>
</g>
</svg>
