<?xml version="1.0" standalone="no"?>
<!DOCTYPE svg PUBLIC "-//W3C//DTD SVG 20010904//EN"
 "http://www.w3.org/TR/2001/REC-SVG-20010904/DTD/svg10.dtd">
<svg version="1.0" xmlns="http://www.w3.org/2000/svg"
 width="260.000000pt" height="260.000000pt" viewBox="0 0 260.000000 260.000000"
 preserveAspectRatio="xMidYMid meet">
<metadata>
Created by potrace 1.14, written by Peter Selinger 2001-2017
</metadata>
<g transform="translate(0.000000,260.000000) scale(0.100000,-0.100000)"
fill="#000000" stroke="none">
<path d="M1140 2593 c-14 -2 -32 -7 -40 -10 -8 -3 -26 -8 -40 -9 -60 -7 -80
-12 -160 -38 -88 -29 -210 -83 -221 -99 -3 -5 -8 -7 -10 -5 -4 2 -61 -32 -153
-94 -70 -47 -198 -179 -262 -268 -21 -30 -41 -57 -44 -60 -4 -3 -19 -31 -35
-62 -16 -32 -33 -58 -37 -58 -4 0 -8 -9 -8 -19 0 -11 -5 -23 -10 -26 -6 -4 -8
-11 -5 -16 4 -5 2 -9 -2 -9 -5 0 -21 -39 -37 -87 -15 -49 -30 -95 -34 -103 -3
-8 -6 -23 -7 -32 -2 -10 -3 -19 -5 -20 -13 -17 -25 -150 -25 -278 0 -155 11
-246 43 -348 6 -18 12 -36 13 -40 6 -24 12 -39 20 -54 5 -10 9 -23 9 -30 0 -7
13 -39 29 -70 16 -31 26 -59 23 -62 -3 -3 0 -6 6 -6 7 0 12 -5 12 -11 0 -14
102 -165 147 -218 43 -50 109 -117 144 -146 64 -53 108 -85 118 -85 6 0 11 -4
11 -8 0 -5 12 -15 28 -23 15 -8 29 -16 32 -19 9 -10 175 -88 220 -104 49 -17
123 -37 155 -43 11 -2 27 -6 35 -9 31 -13 109 -18 260 -18 124 0 176 5 260 23
58 13 110 26 115 29 6 4 15 8 20 9 43 10 59 16 140 54 28 12 62 31 76 40 14
10 28 16 31 13 3 -2 11 2 18 11 7 8 17 15 22 15 5 0 14 4 21 10 54 44 76 60
82 60 3 0 19 12 34 27 16 16 47 45 70 66 22 21 41 43 41 49 0 6 3 8 6 5 4 -3
29 22 56 56 27 34 55 70 63 80 8 9 15 19 15 22 0 3 15 28 33 57 68 107 130
262 153 378 3 14 7 34 9 45 3 11 8 34 11 50 9 44 12 355 4 355 -4 0 -5 11 -2
25 2 14 0 25 -4 25 -5 0 -10 12 -10 28 -2 38 -10 84 -18 104 -4 9 -9 22 -10
30 -4 19 -16 50 -27 70 -5 10 -9 23 -9 28 0 6 -9 30 -20 52 -11 23 -20 48 -20
55 0 7 -4 13 -9 13 -5 0 -13 10 -17 23 -8 25 -101 167 -139 212 -56 66 -115
125 -125 125 -5 0 -10 7 -10 15 0 8 -4 15 -8 15 -5 0 -22 11 -38 25 -16 14
-49 39 -74 55 -25 16 -49 33 -55 38 -64 53 -389 183 -415 167 -6 -4 -10 -2
-10 4 0 5 -8 10 -17 10 -10 0 -31 2 -48 6 -35 7 -328 13 -365 8z"/>
</g>
</svg>
