<?xml version="1.0" standalone="no"?>
<!DOCTYPE svg PUBLIC "-//W3C//DTD SVG 20010904//EN"
 "http://www.w3.org/TR/2001/REC-SVG-20010904/DTD/svg10.dtd">
<svg version="1.0" xmlns="http://www.w3.org/2000/svg"
 width="583.000000pt" height="583.000000pt" viewBox="0 0 583.000000 583.000000"
 preserveAspectRatio="xMidYMid meet">
<metadata>
Created by potrace 1.14, written by Peter Selinger 2001-2017
</metadata>
<g transform="translate(0.000000,583.000000) scale(0.100000,-0.100000)"
fill="#000000" stroke="none">
<path d="M2 4748 l3 -633 680 -2 c374 -1 685 -2 690 -2 7 -1 10 -597 10 -1817
0 -1604 2 -1817 15 -1823 8 -4 319 -7 690 -7 l675 1 2 580 3 580 172 168 c95
93 239 233 319 313 157 156 150 153 184 79 10 -22 43 -92 73 -155 30 -63 93
-196 139 -295 47 -99 108 -227 135 -285 58 -121 116 -245 163 -345 18 -38 59
-124 91 -190 31 -66 58 -122 59 -125 1 -3 21 -45 44 -95 24 -49 56 -118 71
-152 16 -33 34 -65 41 -69 16 -9 1542 -10 1557 0 9 5 1 28 -27 79 -21 40 -85
162 -141 272 -57 110 -120 232 -140 270 -20 39 -79 151 -130 250 -51 99 -116
225 -145 280 -50 95 -78 150 -275 530 -141 272 -221 426 -270 520 -26 50 -88
169 -138 265 -50 96 -119 231 -155 299 l-64 124 113 156 c63 86 200 275 306
421 106 146 195 267 198 270 3 3 30 39 59 80 29 41 72 102 96 135 25 33 70 95
101 138 30 43 62 86 69 95 31 37 508 698 512 710 4 9 -578 12 -2891 12 l-2896
0 2 -632z m3246 -653 c-6 -11 -33 -51 -60 -90 -27 -38 -124 -178 -216 -310
-92 -132 -175 -251 -185 -265 -16 -23 -17 -10 -17 330 l0 355 244 0 c241 0
244 0 234 -20z"/>
</g>
</svg>
